# xmcd
#
# Track frame offsets:
#	180
#	12541
#	26901
#	38473
#	50520
#	62092
#	73020
#	83241
#	93740
#	105143
#	114538
#	126530
#
# Disc length: 1853 seconds
#
# Revision: 3
# Processed by: cddbd v1.5.2PL0 Copyright (c) Steve Scherf et al.
# Submitted via: audiograbber 1.83.01
#
DISCID=a2073b0c
DTITLE=Sapphires - Who Do You Love - Golden Classics
DYEAR=1900
DGENRE=
TTITLE0=Who Do You Love
TTITLE1=Gee I'm Sorry Baby
TTITLE2=Thank You For Loving Me
TTITLE3=Oh So Soon
TTITLE4=Gotta Be More Than Friends
TTITLE5=Slow Fizz
TTITLE6=Gotta Have Your Love
TTITLE7=Gonna Be A Big Thing
TTITLE8=Where Is Johnny Now
TTITLE9=Evil One
TTITLE10=I Found Out Too Late
TTITLE11=How Could I Say Goodbye
EXTD=
EXTT0=
EXTT1=
EXTT2=
EXTT3=
EXTT4=
EXTT5=
EXTT6=
EXTT7=
EXTT8=
EXTT9=
EXTT10=
EXTT11=
PLAYORDER=
